<svg width="64" height="64" viewBox="0 0 64 64" fill="none" xmlns="http://www.w3.org/2000/svg">
<g filter="url(#filter0_d_82_3453)">
<rect x="4.25" y="0.25" width="55.5" height="55.5" rx="27.75" fill="white" stroke="#E0E3E7" stroke-width="0.5"/>
<path d="M32.4786 13C23.9298 13 17 19.9298 17 28.4786C17 36.204 22.6605 42.6075 30.0609 43.77V32.952H26.1293V28.4786H30.0609V25.0687C30.0609 21.1897 32.3703 19.0475 35.9072 19.0475C37.6005 19.0475 39.3713 19.3493 39.3713 19.3493V23.1571H37.421C35.497 23.1571 34.8979 24.3505 34.8979 25.5748V28.4786H39.1902L38.5045 32.952H34.8979V43.77C42.2967 42.6091 47.9573 36.2025 47.9573 28.4786C47.9573 19.9298 41.0275 13 32.4786 13Z" fill="#157DDC"/>
</g>
<defs>
<filter id="filter0_d_82_3453" x="0" y="0" width="64" height="64" filterUnits="userSpaceOnUse" color-interpolation-filters="sRGB">
<feFlood flood-opacity="0" result="BackgroundImageFix"/>
<feColorMatrix in="SourceAlpha" type="matrix" values="0 0 0 0 0 0 0 0 0 0 0 0 0 0 0 0 0 0 127 0" result="hardAlpha"/>
<feOffset dy="4"/>
<feGaussianBlur stdDeviation="2"/>
<feComposite in2="hardAlpha" operator="out"/>
<feColorMatrix type="matrix" values="0 0 0 0 0 0 0 0 0 0 0 0 0 0 0 0 0 0 0.25 0"/>
<feBlend mode="normal" in2="BackgroundImageFix" result="effect1_dropShadow_82_3453"/>
<feBlend mode="normal" in="SourceGraphic" in2="effect1_dropShadow_82_3453" result="shape"/>
</filter>
</defs>
</svg>
