<svg width="56" height="56" viewBox="0 0 56 56" fill="none" xmlns="http://www.w3.org/2000/svg">
<rect x="0.25" y="0.25" width="55.5" height="55.5" rx="27.75" fill="white" stroke="#E0E3E7" stroke-width="0.5"/>
<g clip-path="url(#clip0_82_3434)">
<path d="M20.0733 30.5605L19.1194 34.1216L15.633 34.1953C14.591 32.2628 14 30.0516 14 27.702C14 25.4298 14.5526 23.2872 15.5321 21.4005H15.5328L18.6368 21.9696L19.9965 25.0549C19.7119 25.8846 19.5568 26.7752 19.5568 27.702C19.5569 28.7078 19.7391 29.6715 20.0733 30.5605Z" fill="#FBBB00"/>
<path d="M41.1648 25.1423C41.3222 25.9712 41.4042 26.8272 41.4042 27.702C41.4042 28.683 41.3011 29.6399 41.1046 30.5629C40.4376 33.7039 38.6947 36.4465 36.2803 38.3874L36.2796 38.3867L32.37 38.1872L31.8167 34.733C33.4187 33.7935 34.6707 32.3231 35.3303 30.5629H28.0034V25.1423H35.4372H41.1648Z" fill="#518EF8"/>
<path d="M36.2793 38.3868L36.2801 38.3875C33.9319 40.2749 30.949 41.4042 27.702 41.4042C22.4839 41.4042 17.9472 38.4876 15.6329 34.1956L20.0732 30.5608C21.2304 33.649 24.2094 35.8474 27.702 35.8474C29.2032 35.8474 30.6095 35.4416 31.8163 34.7331L36.2793 38.3868Z" fill="#28B446"/>
<path d="M36.448 17.1545L32.0091 20.7885C30.7602 20.0078 29.2838 19.5568 27.702 19.5568C24.1305 19.5568 21.0957 21.856 19.9965 25.055L15.5328 21.4006H15.532C17.8125 17.0039 22.4064 14 27.702 14C31.0267 14 34.075 15.1843 36.448 17.1545Z" fill="#F14336"/>
</g>
<defs>
<clipPath id="clip0_82_3434">
<rect width="27.4041" height="27.4041" fill="white" transform="translate(14 14)"/>
</clipPath>
</defs>
</svg>
