<svg width="16" height="16" viewBox="0 0 16 16" fill="none" xmlns="http://www.w3.org/2000/svg">
<g clip-path="url(#clip0_82_3247)">
<rect width="16" height="16" rx="8" fill="#AFCAFF"/>
<path d="M8.5705 3.37558L17.002 11.9461L16.8167 13.5675L16.3534 15.1426L15.6585 16.4398L14.7783 17.598L8.5705 11.7144V3.37558Z" fill="#0052FF"/>
<path d="M8.57758 3.37558L3.05176e-05 10.5099V11.3901V12.363L0.0926838 13.3359L0.370646 14.3551L0.602281 15.05L0.926569 15.6985L1.29718 16.3935L1.71413 16.9957L8.57758 11.7537V3.37558Z" fill="#007AFF"/>
<path d="M8.57048 11.6217L14.7783 17.5516L13.9444 18.3855L12.9715 19.034L11.906 19.6363L10.7478 20.0532L9.63598 20.2849L8.52413 20.3312L8.57048 11.6217Z" fill="#0700C4"/>
<path d="M8.56492 11.627L1.7142 16.9493L2.08482 17.4589L2.54809 17.9221L3.56728 18.8024L4.67913 19.4509L5.8373 19.9142L6.48588 20.0995L7.18078 20.2385L7.87569 20.3312L8.56495 20.3312L8.56492 11.627Z" fill="#0000FF"/>
</g>
<defs>
<clipPath id="clip0_82_3247">
<rect width="16" height="16" rx="8" fill="white"/>
</clipPath>
</defs>
</svg>
