<svg width="160" height="165" viewBox="0 0 160 165" fill="none" xmlns="http://www.w3.org/2000/svg">
<g clip-path="url(#clip0_84_5294)">
<rect x="21.6585" width="116.683" height="116.683" rx="58.3415" fill="#AFCAFF"/>
<path d="M80.4839 23.1689L138.355 81.9943L137.083 93.1234L133.904 103.935L129.134 112.838L123.093 120.787L80.4839 80.4044V23.1689Z" fill="#0052FF"/>
<path d="M80.5324 23.1689L21.6586 72.1371V78.1786V84.8561L22.2946 91.5335L24.2024 98.529L25.7923 103.299L28.0182 107.75L30.5619 112.52L33.4237 116.654L80.5324 80.6737V23.1689Z" fill="#007AFF"/>
<path d="M80.4833 79.7682L123.092 120.469L117.368 126.193L110.691 130.644L103.377 134.778L95.4279 137.64L87.7965 139.23L80.1651 139.548L80.4833 79.7682Z" fill="#0700C4"/>
<path d="M80.4455 79.8043L33.4241 116.335L35.9679 119.833L39.1477 123.012L46.1431 129.054L53.7745 133.506L61.7239 136.685L66.1755 137.957L70.9451 138.911L75.7148 139.547L80.4457 139.547L80.4455 79.8043Z" fill="#0000FF"/>
</g>
<path d="M12.2596 145.502C14.657 145.502 16.7741 146.566 17.3657 149.006H22.6585C22.1292 144 17.895 140.746 12.3842 140.746C5.2544 140.746 0.615379 145.783 0.615379 152.761C0.615379 159.864 5.12986 164.621 11.5747 164.621C14.3145 164.621 16.8053 163.65 18.0506 162.18L18.3308 164.276H22.6585V150.978H11.8238V155.421H17.9261C17.7082 157.83 16.0269 159.896 12.2285 159.896C8.55464 159.896 5.93936 157.58 5.93936 152.918C5.93936 148.443 8.08763 145.502 12.2596 145.502Z" fill="#0057FF"/>
<path d="M31.0268 164.276V140.683H26.2322V164.276H31.0268Z" fill="#0057FF"/>
<path d="M33.7832 156.422C33.7832 161.366 37.3948 164.652 42.3763 164.652C47.3267 164.652 50.9383 161.366 50.9383 156.422C50.9383 151.478 47.3267 148.162 42.3763 148.162C37.3948 148.162 33.7832 151.478 33.7832 156.422ZM38.609 156.391C38.609 154.044 40.1346 152.48 42.3763 152.48C44.5868 152.48 46.1124 154.044 46.1124 156.391C46.1124 158.769 44.5868 160.334 42.3763 160.334C40.1346 160.334 38.609 158.769 38.609 156.391Z" fill="#0057FF"/>
<path d="M58.2324 164.276L58.4815 162.274C59.3222 163.713 61.1902 164.683 63.3696 164.683C67.7907 164.683 70.873 161.46 70.873 156.61C70.873 151.51 68.102 148.099 63.7432 148.099C61.5016 148.099 59.4467 149.038 58.5127 150.446V140.683H53.718V164.276H58.2324ZM58.5438 156.36C58.5438 154.013 60.1005 152.448 62.3422 152.448C64.615 152.448 66.0472 154.044 66.0472 156.36C66.0472 158.675 64.615 160.271 62.3422 160.271C60.1005 160.271 58.5438 158.707 58.5438 156.36Z" fill="#0057FF"/>
<path d="M78.3343 164.683C80.6694 164.683 82.7243 163.65 83.2224 162.211L83.5337 164.276H87.768V155.139C87.768 150.665 85.215 148.13 80.7005 148.13C76.2483 148.13 73.3528 150.446 73.3528 153.982H77.338C77.338 152.574 78.4277 151.791 80.4514 151.791C82.1638 151.791 83.0979 152.605 83.0979 154.138V154.388L78.7391 154.733C75.0029 155.014 72.9792 156.798 72.9792 159.677C72.9792 162.743 75.0341 164.683 78.3343 164.683ZM80.0156 161.116C78.5522 161.116 77.8673 160.584 77.8673 159.458C77.8673 158.456 78.6145 157.987 80.7005 157.799L83.129 157.58V158.425C83.129 160.209 81.8525 161.116 80.0156 161.116Z" fill="#0057FF"/>
<path d="M96.0016 164.276V140.683H91.2069V164.276H96.0016Z" fill="#0057FF"/>
<path d="M113.411 164.276V149.57L123.125 164.276H128.107V141.121H123.125V155.859L113.411 141.121H108.43V164.276H113.411Z" fill="#0057FF"/>
<path d="M137.949 164.276V156.172H141.841L145.297 164.276H150.808L146.76 155.077C149.313 153.763 150.59 151.635 150.59 148.631C150.59 143.843 147.414 141.121 141.81 141.121H132.906V164.276H137.949ZM137.949 145.627H141.81C144.052 145.627 145.266 146.691 145.266 148.631C145.266 150.602 143.989 151.729 141.779 151.729H137.949V145.627Z" fill="#0057FF"/>
<path d="M159.385 141.121H154.341V164.276H159.385V141.121Z" fill="#0057FF"/>
<defs>
<clipPath id="clip0_84_5294">
<rect x="21.6585" width="116.683" height="116.683" rx="58.3415" fill="white"/>
</clipPath>
</defs>
</svg>
