<svg width="56" height="56" viewBox="0 0 56 56" fill="none" xmlns="http://www.w3.org/2000/svg">
<rect x="0.25" y="0.25" width="55.5" height="55.5" rx="27.75" fill="white" stroke="#E0E3E7" stroke-width="0.5"/>
<g clip-path="url(#clip0_84_2834)">
<path d="M27.5613 22.4257C26.5393 22.4257 24.9573 21.2637 23.2913 21.3057C21.0933 21.3337 19.0773 22.5797 17.9433 24.5537C15.6613 28.5157 17.3553 34.3677 19.5813 37.5877C20.6733 39.1557 21.9613 40.9197 23.6693 40.8637C25.3073 40.7937 25.9233 39.7997 27.9113 39.7997C29.8853 39.7997 30.4453 40.8637 32.1813 40.8217C33.9453 40.7937 35.0653 39.2257 36.1433 37.6437C37.3893 35.8237 37.9073 34.0597 37.9353 33.9617C37.8933 33.9477 34.5053 32.6457 34.4633 28.7257C34.4353 25.4497 37.1373 23.8817 37.2633 23.8117C35.7233 21.5577 33.3573 21.3057 32.5313 21.2497C30.3753 21.0817 28.5693 22.4257 27.5613 22.4257ZM31.2013 19.1217C32.1113 18.0297 32.7133 16.5037 32.5453 14.9917C31.2433 15.0477 29.6753 15.8597 28.7373 16.9517C27.8973 17.9177 27.1693 19.4717 27.3653 20.9557C28.8073 21.0677 30.2913 20.2137 31.2013 19.1217Z" fill="black"/>
</g>
<defs>
<clipPath id="clip0_84_2834">
<rect width="28" height="28" fill="white" transform="translate(14 14)"/>
</clipPath>
</defs>
</svg>
